PathFileType	4	(X/Y/Z)	s11c0101.trc
DataRate	CameraRate	NumFrames	NumMarkers	Units	OrigDataRate	OrigDataStartFrame	OrigNumFrames
200	200	4	48	mm	200	1750	2000
Frame#	Time	racr			lacr			c7			jug			rlel			rdr			llel			ldr			s2			lic			ric			lasi			rasi			rpsi			lpsi			rgt			lgt			rth1			rth2			rth3			rth4			rlfc			rmfc			rsh1			rsh2			rsh3			rsh4			rlmal			rcal			rtoe			rmt5			lth1			lth2			lth4			lth3			llfc			lmfc			llmal			lcal			lmt5			lsh1			lsh2			lsh3			lsh4			ltoe			SBIKE			LBIKE			RBIKE			
		X1	Y1	Z1	X2	Y2	Z2	X3	Y3	Z3	X4	Y4	Z4	X5	Y5	Z5	X6	Y6	Z6	X7	Y7	Z7	X8	Y8	Z8	X9	Y9	Z9	X10	Y10	Z10	X11	Y11	Z11	X12	Y12	Z12	X13	Y13	Z13	X14	Y14	Z14	X15	Y15	Z15	X16	Y16	Z16	X17	Y17	Z17	X18	Y18	Z18	X19	Y19	Z19	X20	Y20	Z20	X21	Y21	Z21	X22	Y22	Z22	X23	Y23	Z23	X24	Y24	Z24	X25	Y25	Z25	X26	Y26	Z26	X27	Y27	Z27	X28	Y28	Z28	X29	Y29	Z29	X30	Y30	Z30	X31	Y31	Z31	X32	Y32	Z32	X33	Y33	Z33	X34	Y34	Z34	X35	Y35	Z35	X36	Y36	Z36	X37	Y37	Z37	X38	Y38	Z38	X39	Y39	Z39	X40	Y40	Z40	X41	Y41	Z41	X42	Y42	Z42	X43	Y43	Z43	X44	Y44	Z44	X45	Y45	Z45	X46	Y46	Z46	X47	Y47	Z47	X48	Y48	Z48	
1750	8.7500	566.666049	1335.476535	-124.727116	532.285729	1336.799095	-441.358518	502.157437	1426.732358	-281.822815	498.007373	1236.241555	-285.302071	563.468763	1094.274483	29.097798	775.053750	934.191188	-68.503907	485.216356	1054.591771	-578.665033	766.399636	931.632566	-486.542450	-81.796747	1221.471950	-245.331026	124.963529	1249.923797	-463.741543	141.158279	1208.512347	-55.068202	151.039400	1185.707278	-415.945595	166.111443	1145.375294	-88.713365	-31.240465	1291.130074	-188.008973	-42.147928	1290.906039	-284.032685	63.532492	1051.927443	-43.868205	52.562040	1139.859373	-476.002069	126.733759	926.632391	-35.567063	184.953586	859.663458	-48.852410	199.297347	775.070608	-67.971534	216.826125	876.543145	-58.803110	248.104399	683.705542	-93.410898	236.056321	666.869398	-217.984291	204.118032	535.367726	-72.580938	203.712946	448.717590	-89.676250	162.372755	372.306922	-89.233508	227.080955	445.551839	-121.401036	123.135348	234.445007	-100.567902	59.118850	216.442744	-146.262994	343.046426	179.687494	-148.271350	275.355170	150.591060	-77.239218	191.287448	1095.135818	-493.773364	276.978664	1093.110839	-492.981344	289.253970	1125.900183	-477.584351	353.343584	1046.754033	-502.977752	477.025643	993.153442	-487.287423	503.889791	986.069503	-351.167967	223.588775	657.284990	-424.516259	162.903380	656.882532	-383.590462	280.250703	487.016584	-451.630307	408.485653	900.948165	-488.020445	380.026888	821.411296	-469.805133	313.781229	764.413206	-456.006375	409.707727	805.391303	-450.835473	368.794640	440.366298	-389.071867	-215.233286	960.503854	-257.434891	-17.808657	80.932223	-461.128998	-17.812794	81.019044	-62.270444	
1751	8.7550	567.507019	1335.073743	-126.207254	531.368941	1338.468778	-442.949987	502.895191	1426.927471	-282.962821	497.674526	1236.498612	-287.985997	563.983187	1094.488540	27.896580	775.611056	933.867649	-69.060654	484.688941	1055.290487	-578.093122	766.332739	932.208676	-486.779791	-81.396190	1223.418343	-244.149935	124.632396	1252.548053	-462.999342	143.396710	1208.536268	-55.611731	150.339128	1188.193621	-414.992583	167.945835	1146.279605	-89.115897	-30.369374	1292.837831	-186.180774	-41.926734	1293.127053	-282.692572	63.277076	1053.165158	-42.432658	52.758527	1143.753500	-476.555054	125.325505	927.703620	-34.075748	183.357767	860.576511	-46.929742	197.431432	776.165551	-66.149069	215.367419	877.374823	-56.291570	246.148466	684.274185	-91.366463	236.033249	668.245310	-215.917902	201.119322	536.685840	-71.564487	199.230594	450.052925	-88.852129	155.980827	373.889741	-88.760604	222.646065	446.498516	-120.556280	114.706037	237.471132	-100.164861	50.665422	220.832092	-146.172606	333.660824	177.930447	-148.016529	265.348054	150.246424	-77.099837	191.202763	1098.587195	-493.513095	276.902077	1096.450895	-492.142989	289.273623	1129.103552	-476.127126	353.269475	1050.061962	-501.942038	476.204089	996.780283	-486.945831	503.938839	990.090508	-350.877347	229.100471	656.146151	-424.630369	168.202130	654.055971	-383.850922	290.414343	487.567884	-451.918279	409.847316	903.144819	-487.952936	383.020457	822.994061	-469.838435	318.026623	764.661617	-456.176364	413.033702	807.487097	-450.217192	380.089638	443.608216	-389.104324	-215.294682	960.512847	-257.412349	-17.825343	80.957537	-461.124909	-17.818102	81.034024	-62.265171	
1752	8.7600	568.238776	1334.533613	-127.825360	530.591090	1339.934632	-444.296314	503.549557	1426.952509	-283.738623	497.462804	1236.597890	-290.314761	564.507742	1094.508659	26.771761	776.094033	933.802264	-69.387216	484.297072	1055.881822	-577.645190	766.104430	932.604558	-486.913179	-80.977600	1225.288920	-243.039287	124.147098	1254.928180	-462.253571	145.540329	1208.601643	-56.067477	149.529796	1190.409960	-414.170814	169.409193	1147.178832	-89.744016	-29.495369	1294.624789	-184.494343	-41.745666	1295.455077	-281.466472	63.031727	1054.571220	-41.264750	52.279073	1146.538107	-476.300642	124.287308	929.098801	-32.827640	182.334845	861.893240	-45.196612	196.821559	777.676539	-65.013177	214.702543	878.509404	-53.817877	245.557653	685.680528	-89.646015	237.672445	669.319205	-214.076086	198.883344	538.413558	-70.650638	195.395724	452.006820	-88.146883	150.530149	376.420012	-88.286989	218.838952	448.012606	-119.753954	106.747985	241.185034	-100.108523	42.455872	226.208751	-146.364477	324.335204	176.786012	-147.926156	255.408556	150.737759	-76.984774	190.933620	1101.490977	-493.147595	276.679533	1099.100743	-491.141183	288.900891	1131.700594	-475.179233	352.991516	1052.580656	-500.378417	474.742824	999.748996	-486.379809	503.472436	993.210911	-350.289709	234.372996	654.151587	-424.781791	173.219029	650.324483	-384.320376	300.402105	487.511393	-452.164785	411.097450	904.466804	-487.776693	385.901278	823.798928	-469.653035	322.055417	764.005543	-456.330980	416.060903	808.979138	-449.783511	391.324425	446.323156	-389.297945	-215.340628	960.525402	-257.383379	-17.818601	80.968774	-461.129325	-17.815293	81.066774	-62.268388	
1753	8.7650	568.935232	1333.794041	-129.335931	529.984401	1341.027938	-445.368366	504.121835	1426.816942	-284.333896	497.332941	1236.537077	-292.218688	564.930685	1094.411626	25.826474	776.583657	933.931266	-69.513212	483.905357	1056.720875	-577.288629	765.857195	932.797830	-487.106929	-80.734709	1227.307255	-241.914079	123.352464	1256.924561	-461.326460	147.502031	1208.738221	-56.411668	148.373224	1192.235428	-413.146119	170.501840	1148.191004	-90.228297	-28.656156	1296.512643	-182.891260	-41.748020	1297.846843	-280.234699	62.705323	1056.109541	-40.420002	51.698236	1149.077566	-476.055218	123.664223	930.654439	-31.818291	181.957843	863.757270	-43.666877	197.077018	779.769795	-64.167372	214.418272	880.448265	-51.372734	245.554599	687.424838	-88.006038	241.057059	671.127908	-212.791705	197.548583	540.750667	-69.884695	192.232793	454.562833	-87.533263	145.888179	380.028107	-87.888258	215.623770	450.211996	-119.079294	99.023844	245.876941	-99.918718	34.585381	232.257170	-146.291605	315.109263	175.949810	-147.897936	245.602554	151.895730	-76.888105	190.494318	1103.843899	-492.600784	276.190548	1101.350860	-490.430893	288.426648	1133.713589	-474.079141	352.438066	1054.319447	-498.542148	473.621481	1001.910649	-485.134060	502.416936	995.503997	-349.392952	239.338675	651.265967	-424.934426	177.934074	645.585533	-384.658484	310.204854	486.801423	-452.531776	412.151557	904.855166	-487.354549	388.492474	823.633215	-469.264205	325.899447	762.439122	-456.402779	418.722788	809.619342	-449.019072	402.296251	448.599142	-389.310533	-215.360750	960.528214	-257.331385	-17.834250	80.988191	-461.118874	-17.816836	81.092405	-62.271371	
